<svg width="40" height="45" fill="none" xmlns="http://www.w3.org/2000/svg"><g clip-path="url(#clip0_691_63)"><g clip-path="url(#clip1_691_63)"><g clip-path="url(#clip2_691_63)"><path d="M39.5 1.36v43.004a.636.636 0 01-.636.636H1.134a.636.636 0 01-.636-.636V5.774a.636.636 0 01.636-.636h18.812V1.361a.636.636 0 01.636-.636h18.282a.636.636 0 01.636.636zm-1.273 32.06V2.002h-17.01v13.154a.636.636 0 01-.635.635h-1.225v1.571a.636.636 0 11-1.271 0v-1.57h-4.118a.636.636 0 110-1.272h5.974v-3.697H1.773v3.697h4.65a.636.636 0 010 1.271h-1.95v10a.636.636 0 01-.636.636H1.772v2.322h2.955a.636.636 0 010 1.271H1.772v.692h1.64a.636.636 0 01.636.636v.197a2.11 2.11 0 01.848-.177H6.55a2.12 2.12 0 010 4.24H4.897c-.292.001-.58-.06-.848-.176v.197a.636.636 0 01-.636.636h-1.64v2.31h8.424a.636.636 0 01.636.636v.828h3.572V30.02H11.47a.636.636 0 110-1.271h6.615v-1.57a.635.635 0 111.271 0v1.569h3.117a.636.636 0 010 1.271h-6.795v9.086h18.265V34.06a.636.636 0 01.636-.636l3.649-.005zm0 10.304v-9.032h-3.011v5.05a.636.636 0 01-.636.636H23.513v3.351l14.715-.005zm-15.987 0v-3.346h-6.563v3.351l6.563-.005zM19.947 7.34v-.934H1.772v.934h18.175zm0 2.207v-.934H1.772v.943l18.175-.01zm-5.763 34.181V41.31h-3.35v2.418h3.35zM9.56 40.676v-.828H1.772v3.88h7.79v-3.052zm-5.51-7.188a.85.85 0 00.848.848h1.654a.848.848 0 000-1.696H4.897a.849.849 0 00-.848.848zm-.848-8.333v-9.363h-1.43v9.363h1.43zm-.424 8.333v-1.506H1.772v3.012h1.005v-1.506zM36.34 19.567v5.101a.636.636 0 01-.636.636H24.048a.636.636 0 01-.636-.636v-5.1a.636.636 0 01.636-.636h11.656a.636.636 0 01.636.637v-.002zm-1.272 4.463v-3.827h-.635v2.259a.636.636 0 01-.636.636h-7.84a.636.636 0 01-.635-.636v-2.258h-.636v3.828l10.383-.002zm-1.908-2.206v-1.621h-6.568v1.623l6.568-.002zm2.798-16.05a.636.636 0 01-.636.636h-10.94a.636.636 0 010-1.272h1.974a.636.636 0 01.635-.592h5.727a.636.636 0 01.634.592h1.975a.636.636 0 01.631.636zm-.762 6.132c0 2.023-2.18 3.608-4.961 3.608-2.783 0-4.962-1.58-4.962-3.608S27.453 8.3 30.235 8.3c2.782 0 4.96 1.584 4.96 3.607zm-8.651 0c0 1.266 1.69 2.335 3.69 2.335s3.69-1.069 3.69-2.335c0-1.265-1.69-2.335-3.69-2.335s-3.69 1.07-3.69 2.335z" fill="#fff"/></g></g></g><defs><clipPath id="clip0_691_63"><path fill="#fff" transform="translate(.5 .73)" d="M0 0h39v44.27H0z"/></clipPath><clipPath id="clip1_691_63"><path fill="#fff" transform="translate(.5 .73)" d="M0 0h39v44.27H0z"/></clipPath><clipPath id="clip2_691_63"><path fill="#fff" transform="translate(.5 .73)" d="M0 0h38.999v44.27H0z"/></clipPath></defs></svg>