<svg width="39" height="36" fill="none" xmlns="http://www.w3.org/2000/svg"><path d="M27.8.194c-1.308.492-2.139 1.522-2.38 2.959-.046.223-.129.323-.544.607-1.043.715-2.04 1.952-2.524 3.136-.46 1.114-.544 1.606-.581 3.35-.053 1.952-.008 2.152.551 2.72.332.339.453.408.839.493l.445.092.083.492c.114.66.378 1.19.65 1.283.287.1.597-.023.725-.292.091-.192.084-.284-.06-.769a6.3 6.3 0 01-.204-1.083c-.068-.753-.196-.884-.884-.884-.468 0-.536-.023-.74-.223-.265-.276-.28-.469-.038-.753.166-.192.242-.215.854-.261.4-.031.785-.1.96-.185.566-.276 1.019-.937 1.026-1.483 0-.3.099-.515.265-.584.098-.038 5.047.753 5.75.915.097.023.18.123.21.23.069.277.477.715.832.9.219.115.52.176 1.02.207.619.046.717.069.846.23a.633.633 0 010 .784c-.114.139-.227.177-.62.2-.702.046-.808.077-.922.315-.06.115-.128.454-.15.745-.076.976-.71 2.252-1.368 2.767-.348.27-.468.584-.348.876.099.254.439.43.703.361.408-.1 1.292-1.106 1.7-1.936.181-.354.438-1.168.498-1.576.046-.26.069-.284.378-.33.438-.07.975-.423 1.232-.822l.211-.33v-1.922c0-2.144-.06-2.513-.597-3.697-.513-1.137-1.51-2.336-2.508-3.012-.438-.307-.453-.33-.536-.776C32.34 1.662 31.35.532 30.126.148c-.672-.215-1.692-.192-2.327.046zm2.22 1.253c.461.23.914.66 1.134 1.099.113.223.113.238.007.2-.068-.031-.415-.108-.778-.177-.8-.154-2.47-.115-3.12.077-.227.061-.423.107-.438.092-.06-.07.249-.553.559-.86.68-.67 1.767-.846 2.636-.431zm.378 2.39a6.196 6.196 0 014.155 3.512c.265.6.491 1.575.491 2.113V9.9l-.317-.03a62.962 62.962 0 00-.725-.054c-.454-.039-.665-.192-.733-.546-.083-.43-.121-.507-.265-.584-.264-.146-6.52-1.168-6.837-1.114-.725.115-1.284.715-1.375 1.483-.068.607-.249.738-1.103.792-.385.023-.71.03-.725.015-.083-.07.144-1.422.333-1.99.634-1.937 2.304-3.513 4.268-4.027.778-.2 2.025-.2 2.833-.008zM7.054 1.992c-.166.077-.37.216-.446.308a.535.535 0 01-.4.161c-.348 0-1.126.277-1.549.546-.423.277-.952.838-1.208 1.299-.37.645-.439 1.052-.439 2.636v1.452l-.204.246c-.287.353-.4.676-.4 1.183 0 .953.59 1.676 1.488 1.822.295.046.325.069.37.33.212 1.299 1.013 2.667 2.018 3.443.52.407 1.488.884 2.04 1.022a5.474 5.474 0 005.325-1.644c.695-.769 1.224-1.868 1.345-2.76.045-.322.06-.337.348-.383a1.851 1.851 0 001.223-2.882l-.256-.392V7.057c0-1.53-.091-2.09-.469-2.874-.317-.669-1.118-1.514-1.76-1.852-.861-.454-1.103-.485-4.05-.485-2.432 0-2.704.016-2.976.146zm6.248 1.338c.876.438 1.526 1.26 1.715 2.19.045.223.083.876.083 1.437v1.037h-.37c-.469 0-.839-.276-.839-.614a.757.757 0 00-.166-.415c-.166-.185-.37-.23-3.407-.738-1.776-.292-3.287-.538-3.362-.538-.718 0-1.526.776-1.526 1.46 0 .33-.197.684-.423.769a1.5 1.5 0 01-.491.076h-.31l.03-1.29c.023-1.169.038-1.315.204-1.63.37-.73 1.088-1.268 1.806-1.352.77-.085.846-.116 1.088-.385l.241-.269 2.652.023 2.644.023.43.216zM10.03 7.433l2.666.446.137.277c.173.346.551.715.899.884.15.076.558.153.936.176.612.046.688.07.854.262.242.284.227.476-.038.753-.204.2-.272.223-.733.223-.627 0-.86.169-.86.614 0 1.03-.507 2.221-1.27 2.998-1.715 1.744-4.374 1.706-6.059-.085-.635-.669-1.133-1.852-1.133-2.667 0-.369-.159-.737-.34-.814-.068-.023-.31-.046-.537-.046-.657 0-.936-.2-.936-.684 0-.377.234-.5 1.035-.561.604-.039.778-.085 1.065-.27.468-.291.748-.722.869-1.321.113-.538.272-.73.581-.676.106.023 1.39.238 2.864.491z" fill="#1B1B1B"/><path d="M7.409 9.4c-.144.154-.166.27-.166.761 0 .546.015.6.196.746.227.184.393.2.665.077.264-.123.37-.446.332-1-.03-.376-.068-.506-.204-.614-.241-.2-.62-.185-.823.03zm3.626 0c-.136.155-.166.27-.166.739 0 .484.023.576.189.737.196.208.385.239.665.108.257-.115.355-.377.355-.922 0-.385-.03-.492-.189-.646-.242-.253-.627-.261-.854-.015zm-2.584 2.798a.55.55 0 00-.377.538c0 .384.098.523.544.715.763.338 2.115.184 2.478-.285.272-.353.173-.776-.22-.945-.188-.077-.294-.069-.68.07-.566.2-.589.2-1.117.007-.461-.161-.454-.161-.628-.1zm18.321-.938c-.159.154-.19.262-.19.654 0 .707.205.991.703.999.076 0 .22-.085.318-.192.166-.162.188-.254.188-.753 0-.492-.022-.585-.173-.73a.59.59 0 00-.846.023zm3.656-.046c-.136.108-.174.239-.204.615-.038.553.068.876.332 1 .272.122.439.107.665-.078.181-.146.197-.2.197-.753 0-.522-.023-.614-.174-.76a.621.621 0 00-.816-.024zm-2.629 2.859c-.393.162-.499.592-.234.938.347.446 1.624.622 2.38.33.536-.207.642-.323.642-.7 0-.33-.114-.499-.408-.606-.076-.023-.355.023-.627.115-.5.177-.65.161-1.459-.115a.609.609 0 00-.294.038zm-2.448 2.644c-1.767.346-3.346 1.43-4.351 2.99-.794 1.237-1.096 2.49-1.05 4.35.022 1.098.03 1.137.249 1.505.28.454.8.8 1.284.853.302.039.34.062.34.23 0 .316.363 1.323.65 1.776.317.515.922 1.168 1.375 1.483l.317.23v.531c0 .784-.068.838-1.556 1.291-.672.208-1.383.469-1.579.584-.665.4-1.088 1.23-1.095 2.168 0 .691.158.952.596.952.431 0 .612-.238.612-.806 0-.554.22-1.053.552-1.253.136-.085.483-.223.785-.315l.544-.162.363.277c1.48 1.16 3.898 1.368 5.62.484.265-.13.643-.361.84-.5l.347-.26.604.191c.975.316 1.156.523 1.224 1.438.06.722.181.906.62.906.188 0 .34-.053.445-.161.144-.146.159-.23.129-.907-.038-.822-.166-1.168-.635-1.698-.347-.392-.665-.538-2.07-.96-.68-.208-1.231-.416-1.322-.508-.12-.115-.159-.277-.174-.745l-.03-.592.242-.146c.128-.077.446-.346.695-.592l.453-.453h.748c.846 0 1.103-.077 1.541-.47.552-.491.567-.56.567-3.358 0-1.967-.023-2.605-.121-3.073a6.726 6.726 0 00-4.691-5.134c-.847-.254-2.184-.315-3.068-.146zm2.856 1.376c.876.284 1.496.683 2.229 1.429.747.753 1.193 1.537 1.435 2.505.136.523.151.861.151 2.928v2.337l-.189.184c-.128.138-.264.192-.483.192h-.302l.15-.446c.197-.553.273-1.813.152-2.397-.197-.938-.907-1.945-1.715-2.421-.393-.238-5.183-1.883-5.462-1.883-.317.008-.801.269-.99.538-.128.192-.189.4-.227.83-.052.73-.18.86-.86.86-.25 0-.567.031-.696.07l-.234.069.068-.415c.287-1.867 1.602-3.512 3.384-4.25 1.088-.445 2.47-.5 3.589-.13zm.68 5.333c.385.2.884.73 1.103 1.168.204.423.272 1.245.143 1.867-.211 1.061-1.004 2.152-1.926 2.636-.635.339-1.14.446-1.911.392-.552-.03-.726-.084-1.262-.353-.703-.354-1.337-.976-1.662-1.63-.212-.422-.416-1.198-.416-1.613 0-.461-.196-.63-.763-.661-.71-.046-.808-.077-.936-.33-.151-.3-.144-.416.068-.662.158-.192.234-.215.899-.26.62-.04.77-.078 1.08-.277.514-.323.808-.83.846-1.453l.03-.484 2.206.753c1.21.407 2.335.815 2.5.907zm-2.304 7.316c.355 0 .763-.03.914-.07l.272-.06.045.484c.053.576.25.999.62 1.329l.272.246-.363.161c-1.133.508-2.44.5-3.543-.023l-.31-.153.363-.362c.385-.391.521-.737.521-1.33v-.36l.287.069c.151.038.567.069.922.069z" fill="#1B1B1B"/><path d="M24.483 24.056c-.34.138-.416.676-.129.96a.586.586 0 001.02-.414c0-.462-.43-.73-.891-.546zm3.633.015c-.354.177-.4.792-.075 1.022.423.3.96.008.96-.515 0-.46-.446-.722-.885-.507zm-3.158 2.713c-.28.277-.249.615.076.93.793.76 2.342.745 3.158-.03.28-.277.287-.708.007-.93-.272-.216-.528-.2-.891.045-.234.17-.378.216-.718.216-.34 0-.483-.046-.725-.216-.37-.26-.665-.268-.907-.015zM9.147 17.37c-1.443.384-2.614 1.583-3 3.074-.075.277-.113.815-.113 1.56 0 1.091-.007 1.153-.189 1.391-.446.592-.551 1.406-.257 2.021.265.561.937 1.022 1.481 1.022.12 0 .174.093.28.515.272 1.138.936 2.167 1.79 2.805l.536.4-.03.553c-.015.392-.068.6-.158.7-.076.092-.65.315-1.466.56-1.473.462-1.783.63-2.19 1.26-.318.47-.401.792-.401 1.522 0 .723.12.907.589.907.438 0 .559-.184.62-.907.067-.914.249-1.122 1.223-1.437l.605-.192.347.261c.197.139.574.37.839.5 1.722.884 4.14.676 5.62-.484l.363-.277.544.162c.302.092.65.23.786.315.34.207.551.691.551 1.26 0 .384.03.492.174.63.257.246.672.23.884-.046.151-.184.166-.269.128-.86-.037-.708-.143-1.015-.498-1.515-.333-.46-.778-.691-2.153-1.114-1.496-.453-1.557-.507-1.557-1.314l.008-.553.302-.192c.854-.53 1.783-1.93 1.98-2.967l.082-.476.333-.039c1.307-.146 1.972-1.837 1.14-2.912-.218-.277-.218-.292-.218-1.314 0-1.292-.084-1.776-.461-2.567-.537-1.145-1.64-2.03-2.84-2.29-.386-.085-1.096-.116-2.819-.108-2.024 0-2.372.015-2.855.146zm5.59 1.23a3.197 3.197 0 011.995 1.92c.083.224.136.685.166 1.284l.03.946h-.423c-.355 0-.46-.031-.612-.193a.604.604 0 01-.189-.422c0-.5-.053-.515-3.566-1.23l-3.226-.645-.211.153c-.204.154-.212.185-.25 1.053-.037.807-.052.907-.218 1.084-.16.169-.25.2-.597.2h-.408l.03-1.023c.023-.922.045-1.052.234-1.452.408-.845 1.24-1.545 2.063-1.744.166-.039 1.284-.07 2.493-.077 1.994-.008 2.25.007 2.69.146zm-2.432 3.604c1.223.246 2.236.492 2.25.538.016.046.137.253.265.453.34.515.884.784 1.572.784.611 0 .846.077 1.02.338.128.215.105.446-.076.7-.083.123-.227.161-.733.2-.71.053-.899.192-.899.66 0 .485-.234 1.314-.498 1.768-1.058 1.79-3.189 2.398-4.926 1.39-1.035-.599-1.828-1.89-1.828-2.996 0-.623-.25-.83-.99-.83-.378 0-.484-.031-.635-.192-.264-.27-.249-.584.046-.838.196-.17.302-.2.732-.2.68 0 1.028-.107 1.383-.438.408-.377.612-.8.657-1.39.038-.477.038-.485.234-.439.106.023 1.202.246 2.426.492zm-.227 8.538c.355 0 .77-.03.93-.07l.279-.068v.36c0 .593.136.938.52 1.33l.364.362-.31.153a4.257 4.257 0 01-3.543.023l-.363-.161.272-.246c.37-.33.567-.753.62-1.33l.045-.484.272.062c.15.038.559.069.914.069z" fill="#1B1B1B"/><path d="M9.857 24.14c-.416.331-.159 1.069.378 1.069.453 0 .732-.423.559-.846-.16-.384-.605-.491-.937-.223zm3.618.031c-.393.392-.136 1.038.408 1.038.28 0 .612-.292.612-.53 0-.592-.635-.907-1.02-.508zm-3.015 2.582c-.279.223-.271.654.016.93.597.569 1.64.761 2.455.446.235-.092.552-.284.703-.43.25-.23.272-.292.234-.546-.09-.569-.552-.715-1.073-.353-.242.169-.385.215-.725.215-.34 0-.484-.046-.718-.215-.362-.246-.62-.262-.891-.047zm-7.108-7.884c-.786.223-1.61.5-1.828.614-.499.262-1.035.846-1.292 1.407-.204.43-.204.469-.227 2.282-.022 2.006.015 2.283.4 2.651l.19.177v2.836c0 2.728.007 2.836.15 2.982.16.161.522.2.756.077.264-.146.302-.485.302-3.005v-2.452h1.813v3.228c0 3.128.008 3.235.151 3.381.197.2.605.2.839.008l.181-.146v-9.791l-.211-.184c-.257-.223-.499-.238-.763-.023-.197.154-.197.161-.197 1.23v1.068H2.604c-.967 0-1.027-.008-1.231-.185l-.212-.184-.023-1.153c-.03-1.39.053-2.075.325-2.482.348-.546.657-.7 2.267-1.145.816-.223 1.571-.477 1.67-.561.264-.208.256-.676-.016-.892-.113-.092-.287-.161-.4-.153-.106.007-.839.192-1.632.415zm30.763 1.129c-.325.254-.295.869.045 1.046.091.046.635.215 1.217.376 1.934.523 2.206.968 2.145 3.497l-.022 1.152-.212.185c-.204.177-.264.184-1.231.184h-1.013v-.76c0-.738-.007-.769-.196-.923-.265-.215-.506-.2-.763.023l-.212.185v7.946l.182.146c.234.192.642.192.838-.008.144-.146.151-.253.151-2.766v-2.613h1.813v1.837c0 1.89.046 2.251.303 2.39.234.123.596.084.755-.077.144-.146.151-.254.151-2.367V27.23l.189-.177c.385-.369.43-.653.4-2.659-.022-1.806-.022-1.844-.226-2.275-.25-.545-.77-1.122-1.247-1.39-.37-.2-2.448-.823-2.765-.823a.638.638 0 00-.302.092z" fill="#1B1B1B"/></svg>