<svg width="100" height="100" fill="none" xmlns="http://www.w3.org/2000/svg"><path d="M14.102 5.176c-2.383 1.21-3.907 4.472-4.551 9.746-.293 2.441-.117 10.488.293 14.18.43 3.652 1.191 8.164 1.992 11.601.371 1.621.664 2.95.664 2.988 0 .04-.488.059-1.094.059-1.328 0-1.738.195-2.011.996-.313.879-.313 48.691 0 49.57.117.332.37.703.566.801.234.137 14.57.195 40.117.195 39.512 0 39.766 0 40.156-.39.391-.39.391-.645.391-25.39v-25l-.41-.41c-.352-.352-.586-.411-1.719-.333-.781.04-1.602.234-2.11.469l-.82.41.137-.605c.078-.333.137-2.11.137-3.926 0-3.653-.254-4.942-1.504-7.403-.684-1.347-2.383-3.222-3.555-3.906-1.68-.976-4.453-1.387-6.133-.898l-.664.175.332-.527c1.133-1.777 2.48-2.48 4.649-2.441 1.328.02 1.582-.04 2.031-.41.39-.352.527-.645.527-1.192 0-.996-.683-1.562-2.07-1.738-3.184-.371-6.543 1.387-8.066 4.238-.293.547-.567 1.055-.606 1.094-.039.039-.43-.254-.898-.645-2.305-1.992-5.45-2.52-8.535-1.465-.586.215-1.172.47-1.309.567-.176.176-.664-.195-1.973-1.504-1.23-1.23-2.187-1.973-3.32-2.598l-1.602-.879-.019-1.718c0-1.563.04-1.7.39-1.7.215 0 .567-.175.782-.39.371-.371.39-.645.39-4.297 0-3.652-.019-3.926-.39-4.297-.371-.371-.645-.39-7.422-.39-6.777 0-7.05.019-7.422.39-.371.371-.39.645-.39 4.297 0 3.652.019 3.926.39 4.297.215.215.566.39.781.39.352 0 .391.137.391 1.7l-.02 1.718-1.503.84c-1.797.977-3.711 2.637-4.864 4.2l-.84 1.152-.195-.567c-.8-2.09-3.184-7.265-4.316-9.355-2.246-4.121-4.121-6.777-6.309-8.965-2.5-2.48-3.633-3.105-5.879-3.183-1.367-.059-1.68 0-2.597.449zm4.609 3.73c3.496 2.422 8.34 10.586 11.953 20.176.781 2.05.898 2.54.762 3.125-.098.39-.176 3.594-.176 7.11v6.425l-.8-.703c-1.055-.898-2.266-1.289-3.966-1.289-1.875 0-3.32.684-4.882 2.305-1.72 1.777-2.618 2.11-3.946 1.484-.742-.352-.898-.742-2.129-5.684-1.972-7.812-2.968-16.19-2.773-23.359.137-5.273.762-7.988 2.207-9.687 1.016-1.172 1.914-1.153 3.75.097zM51.563 12.5v1.563h-9.376v-3.126h9.376V12.5zM50 19.805c0 1.445.059 2.773.117 2.93.059.175.918.703 1.914 1.171 1.836.899 3.086 1.817 4.219 3.125.45.508.605.82.469.977-.098.137-.723.976-1.407 1.875-3.261 4.316-4.765 10.39-3.925 15.84.234 1.582.117 1.855-.899 2.05-1.074.196-1.894-.214-3.242-1.64-1.797-1.895-2.695-2.285-5.156-2.285-2.403 0-3.086.312-4.844 2.148-1.074 1.133-2.09 1.856-2.656 1.856-.274 0-.293-11.426-.02-14.004.47-4.473 2.871-7.871 6.953-9.844 1.094-.527 2.051-1.094 2.11-1.27.058-.175.117-1.484.117-2.93v-2.616H50v2.617zm16.68 8.593c1.113.645 2.402 2.09 2.87 3.204.216.507.528 1.035.704 1.152.566.43 1.719.312 2.363-.234 1.504-1.25 4.024-1.797 5.606-1.192 1.113.43 2.46 1.738 3.125 3.047 1.601 3.145 1.699 8.145.254 12.09-.215.605-.47 1.172-.547 1.25-.274.312-1.465-.45-2.696-1.7-1.738-1.796-2.597-2.167-5.02-2.167-2.421 0-2.987.273-5.038 2.324-2.227 2.226-3.242 2.226-5.41 0-1.72-1.758-3.106-2.422-5.02-2.422-.918 0-1.758.137-2.402.371l-.977.371v-1.836c0-2.207.39-4.258 1.25-6.562.801-2.149 1.68-3.575 3.125-5.157 2.676-2.949 5.547-3.867 7.813-2.539zM28.008 47.461c.351.215.996.82 1.445 1.348.996 1.191 2.813 2.148 4.375 2.304 2.012.196 4.297-.8 5.606-2.46.859-1.075 1.738-1.583 2.773-1.583 1.035 0 1.523.293 3.027 1.856 1.758 1.816 3.75 2.539 5.84 2.11 1.621-.352 2.422-.802 3.692-2.11 1.523-1.563 1.992-1.856 3.047-1.856 1.054 0 1.523.293 3.046 1.856 1.758 1.816 3.75 2.539 5.84 2.11 1.64-.352 2.442-.802 3.77-2.188l1.21-1.25v44.59H12.5V69.922c0-19.004.04-22.246.273-22.149.157.059.645.528 1.075 1.055.546.645 1.23 1.172 2.109 1.602 1.133.547 1.504.644 2.793.644 1.953-.02 3.32-.644 4.824-2.187.586-.625 1.309-1.29 1.602-1.465.683-.469 2.07-.45 2.832.039zm48.418 1.426c1.328 1.347 2.129 1.797 3.75 2.148.8.156 1.347.156 2.148 0 1.64-.351 2.442-.8 3.73-2.148.645-.684 1.25-1.23 1.31-1.23.077 0 .136 10.019.136 22.265v22.266H75V69.922c0-12.246.04-22.266.098-22.266s.664.547 1.328 1.23z" fill="#1B1B1B"/><path d="M20.762 15.469c-.508.254-.274-.332-2.52 6.191-1.015 2.95-1.836 5.625-1.836 5.977 0 .918.606 1.465 1.64 1.465.567 0 .938-.118 1.173-.372.41-.449 4.023-11.23 4.023-11.992 0-1.133-1.328-1.816-2.48-1.27zm3.906 13.437c-.234.098-.566.39-.742.645-.567.86-4.004 11.484-3.887 11.992.156.625.977 1.23 1.66 1.23 1.094 0 1.387-.546 3.38-6.445 1.034-3.066 1.874-5.762 1.874-5.996 0-.957-1.348-1.816-2.285-1.426z" fill="#1B1B1B"/></svg>