<svg width="100" height="100" fill="none" xmlns="http://www.w3.org/2000/svg"><g clip-path="url(#clip0_1083_538)" fill="#1B1B1B"><path d="M66.035.371c-.469.469-.566 1.7-.156 2.246.137.196.8.469 1.504.645 1.465.332 2.148.781 2.754 1.777.586.977.918 1.211 1.738 1.211s1.152-.234 1.738-1.21c.606-.997 1.29-1.446 2.754-1.778.703-.176 1.367-.45 1.504-.645.41-.547.313-1.777-.156-2.246-.371-.371-.586-.41-1.817-.332-1.425.098-2.714.586-3.574 1.387l-.449.39-.43-.39C70.566.625 69.277.136 67.852.039c-1.23-.078-1.446-.039-1.817.332zM5.117 6.602C4.61 7.109 0 19.512 0 20.372c0 1.112.528 1.503 1.953 1.503h1.172V87.5H1.953C-.058 87.5 0 87.305 0 93.75c0 5.215.02 5.488.39 5.86.391.39.645.39 49.61.39 48.965 0 49.219 0 49.61-.39.37-.372.39-.645.39-5.86s-.02-5.488-.39-5.86c-.371-.37-.645-.39-7.813-.39h-7.422v-9.375h6.055c6.7 0 6.914-.04 8.183-1.23C100 75.566 100 75.664 100 66.405c0-7.676-.039-8.36-.37-9.082-.782-1.68-2.345-2.636-4.317-2.636-1.407 0-2.383.37-3.301 1.23-1.113 1.055-1.387 1.895-1.387 4.375V62.5H89.22c-1.66 0-2.676.39-3.613 1.387-.899.957-1.23 1.894-1.23 3.496v1.367H81.25v-7.812h1.563c1.308 0 1.62-.06 1.953-.391.527-.527.527-1.816 0-2.344-.371-.371-.645-.39-5.078-.39-4.434 0-4.707.019-5.078.39-.528.527-.528 1.816 0 2.344.332.332.644.39 1.953.39h1.562v7.813H75v-1.426c0-1.64-.39-2.656-1.386-3.593-.958-.899-1.895-1.231-3.497-1.231H68.75v-2.207c0-2.48-.273-3.32-1.386-4.375-.919-.86-1.895-1.23-3.301-1.23-1.973 0-3.535.956-4.317 2.636-.332.723-.37 1.407-.37 9.082 0 9.258 0 9.16 1.386 10.488 1.27 1.192 1.484 1.231 8.183 1.231H75V87.5H59.278l.058-1.21c.098-1.563-.195-2.54-1.094-3.517-1.054-1.171-1.953-1.523-4.003-1.523-2.13 0-2.95-.293-3.243-1.21-.117-.353-2.148-8.126-4.511-17.247-3.223-12.441-4.454-16.914-4.922-17.871-.82-1.621-2.97-3.809-4.57-4.649-1.485-.761-3.145-1.21-4.61-1.21H31.25V21.875h1.172c1.426 0 1.953-.39 1.953-1.504 0-.86-4.61-13.262-5.117-13.77-.332-.331-1.055-.351-12.07-.351-11.016 0-11.739.02-12.07.352zm22.305 4.082c.273.742 1.055 2.812 1.738 4.648l1.25 3.32-6.601.059c-3.653.02-9.59.02-13.242 0l-6.602-.059 1.25-3.32c.684-1.836 1.465-3.906 1.738-4.648l.508-1.309h19.453l.508 1.309zm.703 44.004V87.5H25V66.797c0-20.45 0-20.703-.39-21.094-.372-.371-.645-.39-7.422-.39-6.778 0-7.051.019-7.422.39-.39.39-.39.645-.39 21.094V87.5H6.25V21.875h21.875v32.813zm5.957-11.993c1.953.528 4.14 2.54 4.864 4.453.156.45 2.246 8.301 4.609 17.48 2.383 9.18 4.492 17.013 4.687 17.423.43.82 1.368 1.68 2.286 2.07.37.137 1.347.254 2.304.254 2.012 0 2.95.332 3.145 1.094.215.86-.137 1.504-.977 1.816-1.113.43-4.238.059-5.742-.683-1.367-.665-2.93-2.208-3.535-3.458-.254-.527-2.422-8.515-4.824-17.773-2.403-9.258-4.512-17.168-4.688-17.578-.664-1.484-2.285-2.48-3.984-2.48h-.977v-3.126l.938.118a13.54 13.54 0 011.894.39zm-12.207 8.086v2.344H12.5v-4.687h9.375v2.343zm10.625-2.07c.469.195.723.469.88.937.116.352 2.148 8.106 4.51 17.246 4.454 17.208 4.747 18.125 6.153 19.766l.723.84H31.25V67.969c0-21.602-.117-19.824 1.25-19.258zm-10.625 9.883v2.343H12.5V56.25h9.375v2.344zm42.969-.39c.586.312.781 1.308.781 4.023 0 3.379.02 3.398 2.617 3.398.996 0 2.11.098 2.461.215.723.254 1.172 1.113 1.172 2.226v.684H62.5v-4.57c0-4.61.098-5.45.723-5.938.39-.273 1.113-.312 1.62-.039zm31.25 0c.664.35.781 1.269.781 5.976v4.57H87.5v-.684c0-1.113.45-1.972 1.172-2.226.352-.117 1.465-.215 2.461-.215 2.598 0 2.617-.02 2.617-3.398 0-2.676.156-3.536.723-3.985.39-.273 1.113-.312 1.62-.039zm-74.219 8.202v2.344H12.5v-4.688h9.375v2.344zm0 7.813v2.344H12.5v-4.688h9.375v2.344zm75-1.68c0 .352-.097.938-.215 1.29-.43 1.21.059 1.171-16.933 1.171-10.996 0-15.586-.059-16.055-.215-.723-.254-1.172-1.113-1.172-2.226v-.684h34.375v.664zM81.25 82.812V87.5h-3.125v-9.375h3.125v4.688zm-59.375.782V87.5H12.5v-7.812h9.375v3.906zm75 10.156v3.125H3.125v-6.25h93.75v3.125z"/><path d="M9.766 25.39c-.371.372-.391.645-.391 8.204 0 7.558.02 7.832.39 8.203.372.371.645.39 7.422.39 6.778 0 7.051-.019 7.422-.39.371-.371.391-.645.391-8.203 0-7.559-.02-7.832-.39-8.203-.372-.371-.645-.391-7.422-.391-6.778 0-7.051.02-7.422.39zm12.109 8.204v5.468H12.5V28.125h9.375v5.469zm23.848-17.598c-.47.469-.567 1.7-.157 2.246.137.195.801.469 1.504.645 1.465.332 2.149.781 2.754 1.777.586.977.918 1.211 1.739 1.211.82 0 1.152-.234 1.738-1.21.605-.997 1.289-1.446 2.754-1.778.703-.176 1.367-.45 1.504-.645.41-.547.312-1.777-.157-2.246-.37-.371-.586-.41-1.816-.332-1.426.098-2.715.586-3.574 1.387l-.45.39-.43-.39c-.878-.801-2.167-1.29-3.593-1.387-1.23-.078-1.445-.039-1.816.332zm34.453 3.086a10.38 10.38 0 00-1.894.996c-.801.547-.957.606-1.524.41-.351-.136-1.308-.175-2.207-.136-1.738.097-2.734.488-3.926 1.543-.722.625-1.875 2.695-1.875 3.378 0 .254-.273.586-.683.86-1.602 1.094-2.52 2.988-2.5 5.176.02 2.52 1.23 4.472 3.574 5.722.644.352 1.289.371 11.23.371h10.547l.918-.449c1.172-.586 2.344-1.758 2.93-2.93.527-1.113.703-3.359.352-4.648-.489-1.7-2.461-3.77-3.907-4.082-.449-.098-.605-.293-.879-1.133-.683-2.129-2.129-3.77-4.199-4.785-1.406-.684-4.414-.84-5.957-.293zm4.55 3.36c1.505.761 2.403 2.09 2.677 3.984.156 1.172.605 1.64 1.718 1.797 3.125.468 3.965 4.082 1.309 5.644-.664.39-.957.41-9.96.41-8.438 0-9.337-.039-9.903-.332-1.016-.566-1.524-1.465-1.524-2.695 0-1.29.528-2.148 1.64-2.715.997-.527 1.192-.82 1.368-2.031.254-1.856 1.309-2.871 2.95-2.871 1.6 0 2.753 1.094 3.027 2.87.175 1.134.664 1.622 1.66 1.622 1.25 0 1.62-.527 1.523-2.129-.039-.82-.234-1.621-.527-2.226-.254-.508-.41-.977-.371-1.016.039-.04.37-.215.742-.371.977-.43 2.793-.39 3.672.058z"/></g><defs><clipPath id="clip0_1083_538"><path fill="#fff" d="M0 0h100v100H0z"/></clipPath></defs></svg>