<svg width="100" height="100" fill="none" xmlns="http://www.w3.org/2000/svg"><path d="M9.375 25v23.438h81.25V1.562H9.375V25zM87.5 21.875v17.188h-6.25v-6.25H65.625v6.25H12.5V4.687h75v17.188zM78.125 37.5v1.563H68.75v-3.126h9.375V37.5zm9.375 6.25v1.563h-75v-3.126h75v1.563zm-75.488 9.746c-1.446.684-2.637 2.344-2.637 3.73v.587H0v9.375h3.125v25H6.25v-25l1.621.019h1.602l.586.918c.332.488.976 1.172 1.425 1.504.762.508 1.036.586 2.5.664l1.641.059v7.773h-6.25V87.5H12.5v10.938h3.125V87.5H31.25v10.938h3.125V87.5H37.5v-9.375h-6.25v-7.812h1.426c.937 0 1.66-.118 2.187-.372.801-.351 1.914-1.464 2.285-2.285.215-.43.332-.469 1.856-.469h1.621v25h3.125v-25h3.125v-9.375H37.5v-.585c0-1.387-1.191-3.047-2.637-3.73-.722-.333-1.465-.372-11.425-.372-9.961 0-10.704.04-11.426.371zm21.27 3.027c.956.41 1.093 1.016 1.093 5.196s-.137 4.785-1.094 5.195c-.957.41-18.73.41-19.687 0-.957-.41-1.094-1.016-1.094-5.195 0-4.121.137-4.785 1.055-5.196.898-.39 18.789-.39 19.726 0zM9.374 62.5v1.563h-6.25v-3.126h6.25V62.5zm34.375 0v1.563H37.5v-3.126h6.25V62.5zM28.125 74.219v3.906H18.75v-7.812h9.375v3.906zm6.25 8.594v1.562H12.5V81.25h21.875v1.563zm30.762-29.317c-1.446.684-2.637 2.344-2.637 3.73v.587h-9.375v9.375h3.125v25h3.125v-25l1.621.019h1.602l.586.918c.332.488.976 1.172 1.425 1.504.762.508 1.035.586 2.5.664l1.641.059v7.773H62.5V87.5h3.125v10.938h3.125V87.5h15.625v10.938H87.5V87.5h3.125v-9.375h-6.25v-7.812h1.426c.937 0 1.66-.118 2.187-.372.801-.351 1.914-1.464 2.285-2.285.215-.43.333-.469 1.856-.469h1.621v25h3.125v-25H100v-9.375h-9.375v-.585c0-1.387-1.191-3.047-2.637-3.73-.722-.333-1.465-.372-11.425-.372-9.961 0-10.704.04-11.426.371zm21.27 3.027c.956.41 1.093 1.016 1.093 5.196s-.137 4.785-1.094 5.195c-.957.41-18.73.41-19.687 0-.957-.41-1.094-1.016-1.094-5.195 0-4.121.137-4.785 1.055-5.196.898-.39 18.789-.39 19.726 0zM62.5 62.5v1.563h-6.25v-3.126h6.25V62.5zm34.375 0v1.563h-6.25v-3.126h6.25V62.5zM81.25 74.219v3.906h-9.375v-7.812h9.375v3.906zm6.25 8.594v1.562H65.625V81.25H87.5v1.563z" fill="#1B1B1B"/></svg>