<svg width="100" height="100" fill="none" xmlns="http://www.w3.org/2000/svg"><path d="M81.25 2.773c-.313.352-.39.684-.39 1.915 0 1.308.058 1.542.449 1.914.566.546 1.68.566 2.304.058.43-.332.469-.527.469-1.972 0-1.446-.039-1.641-.469-1.973-.644-.527-1.836-.488-2.363.058z" fill="#1B1B1B"/><path d="M75.098 6.738c-.723.703-.625 1.504.351 3.242l.86 1.465-.86.957c-.996 1.075-1.543 2.07-2.031 3.614l-.332 1.074-1.914.058c-2.266.059-2.813.372-2.813 1.602s.547 1.543 2.813 1.602l1.914.058.332 1.074c.488 1.543 1.035 2.54 2.031 3.614l.86.957-.86 1.465c-.976 1.738-1.074 2.539-.351 3.242.566.586 1.425.625 2.07.117.254-.195.82-.996 1.25-1.758.762-1.348.8-1.387 1.367-1.25.781.195 4.512.195 5.293 0 .606-.156.625-.137 1.524 1.406.937 1.621 1.308 1.973 2.148 1.973.606 0 1.426-.723 1.582-1.387.117-.449-.527-1.914-1.504-3.476-.195-.332-.117-.508.664-1.348 1.035-1.094 1.543-2.031 2.012-3.613l.312-1.113h1.934c2.344 0 2.832-.254 2.832-1.563s-.488-1.563-2.832-1.563h-1.934l-.312-1.113c-.469-1.582-.977-2.52-2.012-3.613-.781-.84-.86-1.016-.664-1.348.977-1.562 1.621-3.027 1.504-3.476-.156-.664-.976-1.387-1.582-1.387-.84 0-1.21.352-2.148 1.973-.899 1.543-.918 1.562-1.524 1.406-.781-.195-4.512-.195-5.293 0-.566.137-.605.098-1.367-1.25-.43-.762-.996-1.563-1.25-1.758-.645-.508-1.504-.469-2.07.117zm10.02 6.543c1.386.703 2.245 1.621 2.929 3.125 1.738 3.77-1.23 8.399-5.39 8.418-1.505.02-2.481-.273-3.614-1.015-2.832-1.875-3.516-5.743-1.524-8.633 1.114-1.621 2.793-2.461 5.02-2.48 1.152 0 1.582.097 2.578.585z" fill="#1B1B1B"/><path d="M68.828 9.863c-.684.274-.86.606-.86 1.543 0 1.504 3.204 2.969 4.16 1.914.45-.488.587-1.406.294-1.972-.274-.508-1.7-1.446-2.5-1.641-.274-.059-.762 0-1.094.156zm24.844.469c-1.133.664-1.29.879-1.29 1.816 0 1.446 1.329 1.954 2.95 1.133 1.191-.625 1.543-1.054 1.543-1.953 0-1.601-1.426-2.05-3.203-.996zm-64.57 5.684c-6.036 1.074-11.309 3.847-15.723 8.28-4.57 4.571-7.266 9.767-8.34 16.036-.332 2.012-.371 2.871-.293 5.957.137 4.16.469 6.152 1.113 6.68.684.547 1.836.468 2.325-.157.234-.292.41-.683.41-.859 0-.43-.489-.312 7.168-1.66l6.308-1.113.567.605c.976 1.035 2.265.762 2.832-.605.293-.684.312-.684 2.285-1.016 1.094-.176 2.031-.273 2.11-.215.116.137 4.882 26.719 4.784 26.817-.02.039-1.27.37-2.793.722-5.175 1.25-10.898 3.38-15.214 5.684-4.922 2.578-8.438 5.156-12.305 8.965-2.715 2.675-2.774 2.754-2.774 3.574 0 .566.118.937.391 1.21.39.391.645.391 28.125.391h27.735v1.172c0 1.465.39 1.954 1.562 1.954 1.172 0 1.563-.489 1.563-1.954v-1.171H81.25v1.171c0 1.465.39 1.954 1.563 1.954 1.171 0 1.562-.489 1.562-1.954v-1.171h6.64c6.387 0 6.66-.02 7.032-.391.273-.274.39-.645.39-1.191 0-.782-.117-.938-2.09-2.95a50.516 50.516 0 00-8.027-6.64l-2.03-1.329h.995c1.27 0 1.778-.449 1.778-1.562 0-1.328-.43-1.563-2.735-1.563h-1.953v-9.375h1.953c2.305 0 2.734-.234 2.734-1.562s-.43-1.563-2.734-1.563h-1.953v-7.421c0-7.168-.02-7.442-.39-7.813-.391-.39-.645-.39-12.891-.39s-12.5 0-12.89.39c-.372.371-.392.645-.392 7.813v7.422H55.86c-2.304 0-2.734.234-2.734 1.562s.43 1.563 2.734 1.563h1.953v3.515l-.917-.156c-.528-.078-3.575-.137-6.797-.137h-5.88l-2.402-13.633c-1.308-7.5-2.363-13.672-2.324-13.71.04-.04.996-.255 2.13-.45l2.07-.37.488.605c.644.8 1.758.84 2.422.039.254-.293.468-.703.468-.918 0-.196.059-.371.157-.371.078 0 3.105-.528 6.738-1.172l6.62-1.153.49.567c.82.996 2.577.703 2.87-.489.176-.664-.703-4.921-1.465-7.05-1.503-4.258-3.75-7.774-7.09-11.133-4.511-4.492-9.765-7.246-15.898-8.3-2.949-.49-7.5-.49-10.39.019zm9.648 3.222a26.725 26.725 0 0118.379 12.715c1.562 2.617 3.125 6.719 2.715 7.09-.235.195-13.145 2.441-13.282 2.305-.058-.059-.312-1.016-.566-2.13-1.855-8.124-5.234-15.683-8.652-19.355-.996-1.035-.977-1.035 1.406-.625zm-6.895.41c3.184 1.602 6.758 7.286 9.239 14.63.703 2.07 2.168 7.695 2.031 7.792-.078.059-18.008 3.203-18.066 3.164-.118-.097-.47-2.949-.665-5.488-.527-6.621.274-13.281 2.051-16.992 1.446-3.086 3.34-4.16 5.41-3.106zM22.832 22.5c-.684 1.738-1.328 4.648-1.66 7.48-.371 3.243-.274 9.922.195 13.555.176 1.23.274 2.266.254 2.285-.039.059-13.262 2.422-13.496 2.422-.254 0-.117-5.644.176-7.344 1.094-6.191 4.687-12.324 9.472-16.113 1.66-1.308 4.805-3.3 5.215-3.3.176 0 .137.292-.156 1.015zm13.3 24.297c0 .078 1.056 6.133 2.364 13.496 1.29 7.363 2.285 13.457 2.188 13.535-.078.078-.723.215-1.426.274l-1.27.136-2.304-13.144c-1.27-7.227-2.325-13.32-2.344-13.535-.04-.371.254-.47 2.656-.86.078 0 .137.04.137.098zm29.493 20.39v12.5h-4.687v-25h4.686v12.5zm7.813 0v12.5H68.75v-25h4.688v12.5zm7.812 0v12.5h-4.688v-25h4.688v12.5zM54.2 76.856c3.808.156 3.612.078 3.612 1.582v1.25H55.86c-2.304 0-2.734.234-2.734 1.562s.43 1.563 2.734 1.563h1.953v9.375h-25.43l-25.448-.02.976-.879c9.336-8.516 23.438-13.828 38.477-14.512 1.718-.078 3.574-.117 4.101-.097.547.039 2.207.117 3.711.175zm19.491 7.343l-2.597 1.367-2.578-1.367-2.598-1.367h10.351l-2.578 1.367zm-7.52 2.578c.665.332 1.212.664 1.212.723 0 .059-.547.39-1.211.723-.684.351-2.129 1.113-3.223 1.699l-2.011 1.094v-7.032l2.011 1.075c1.094.605 2.54 1.367 3.223 1.718zm15.04 2.442l-.059 1.738-3.164-1.68c-1.757-.918-3.183-1.718-3.183-1.777 0-.059 1.425-.86 3.183-1.777l3.164-1.68.059 1.738c.02.938.02 2.5 0 3.438zm5.312-2.227c1.797 1.211 4.083 2.989 5.762 4.473l.781.703-4.335.02h-4.356v-3.223c0-1.778.059-3.223.137-3.223.058 0 .976.567 2.011 1.25zm-12.91 3.75c1.348.723 2.5 1.328 2.54 1.367.038.04-2.247.079-5.079.079h-5.156l2.539-1.368c1.406-.742 2.578-1.367 2.617-1.367.04 0 1.192.586 2.54 1.29zm-3.789-66.621c-1.406.742-1.855 1.23-1.855 1.953 0 1.582 1.465 2.11 3.203 1.153 1.523-.86 1.914-1.915 1.055-2.891-.684-.742-1.29-.8-2.403-.215zm22.949.098c-.39.39-.527 1.386-.273 2.031.059.176.586.566 1.152.898 1.856 1.055 3.223.645 3.223-.976 0-.899-.352-1.328-1.543-1.953-1.016-.508-2.05-.508-2.558 0zM81.25 30.898c-.313.352-.39.684-.39 1.915 0 1.308.058 1.542.449 1.914.566.546 1.68.566 2.304.058.43-.332.469-.527.469-1.972 0-1.446-.039-1.641-.469-1.973-.644-.527-1.836-.488-2.363.058z" fill="#1B1B1B"/></svg>