<svg width="39" height="40" fill="none" xmlns="http://www.w3.org/2000/svg"><path fill-rule="evenodd" clip-rule="evenodd" d="M15.075.765C14.617.932.803 8.965.545 9.217c-.42.396-.572.83-.541 1.493.023.542.053.625.465 1.357.502.884.815 1.197 1.417 1.372.579.168 1.09.091 1.783-.267.03-.015.053 2.576.053 5.762v5.792l-.42.206c-.555.267-1.043.77-1.348 1.395-.244.487-.251.54-.274 1.615-.03 1.045-.023 1.12.137 1.311l.16.214h14.995l.045.358c.183 1.44.602 2.782 1.227 3.978 1.494 2.874 4.26 4.97 7.497 5.686.9.198 2.972.236 4 .076 2.766-.427 5.387-1.997 7.033-4.184.366-.488.137-1.067-.42-1.067-.243 0-.32.053-.662.45-1.66 1.974-3.688 3.17-6.042 3.582-.846.145-2.408.145-3.269 0a9.882 9.882 0 01-7.68-6.593c-.396-1.181-.526-2.103-.48-3.391.069-1.974.587-3.56 1.692-5.221.472-.701 1.73-1.982 2.43-2.477a10.46 10.46 0 014.145-1.684c.892-.145 2.652-.107 3.482.076 1.867.42 3.444 1.258 4.785 2.553a9.384 9.384 0 011.95 2.591c.762 1.479 1.075 2.79 1.075 4.466 0 1.22-.145 2.104-.503 3.125-.358.999-.404 1.403-.183 1.6.236.214.663.191.876-.052.236-.275.762-1.929.922-2.874.19-1.174.122-3.254-.152-4.336-.534-2.12-1.478-3.796-3.002-5.297-1.882-1.867-4.328-2.98-6.926-3.155l-.709-.046V15.39c0-1.227.016-2.233.038-2.233.023 0 .183.069.35.16.664.335 1.57.236 2.142-.236.533-.442 1.28-1.867 1.28-2.44 0-.434-.236-1.013-.556-1.34-.244-.252-2.012-1.319-7.254-4.352C20.293 2.746 17.01.87 16.804.795c-.427-.16-1.326-.175-1.73-.03zm8.266 5.182c3.81 2.21 7.01 4.085 7.101 4.177.313.297.298.533-.091 1.25-.396.716-.693.975-1.051.914-.115-.023-3.063-1.692-6.553-3.712-3.482-2.02-6.446-3.719-6.583-3.772-.16-.069-.305-.084-.427-.038-.091.038-3.032 1.722-6.53 3.75-3.496 2.02-6.445 3.711-6.567 3.757-.373.137-.678-.084-1.082-.785-.404-.701-.45-1.037-.175-1.334.13-.145 8.716-5.167 13.463-7.873a5.49 5.49 0 00.253-.155c.14-.088.255-.162.38-.204.59-.2 1.407.275 6.062 2.98l1.8 1.045zm-1.943 3.277l5.448 3.156.023 2.675.015 2.675h-.228c-.366 0-1.646.297-2.355.549-.678.236-1.722.731-2.08.99l-.205.145-.023-3.148-.023-3.147-.213-.435c-.229-.464-.564-.8-1.067-1.067l-.32-.175h-8.915l-.419.236c-.77.435-1.18 1.182-1.18 2.15 0 .419.022.503.182.632.236.19.617.183.83-.007.13-.122.168-.244.168-.511 0-.457.244-.968.564-1.166.244-.145.366-.153 4.328-.153h4.076l.26.176.013.009c.096.063.175.115.238.18.274.283.274.831.274 3.739v3.533l-.762.8-.075.08c.048-.352.048-1.17.048-3.475 0-3.48 0-3.571-.166-3.786l-.157-.214H16.02c-3.476 0-3.657.008-3.83.157l-.19.156v7.373l.19.157c.173.149.354.157 3.83.157h3.453c-.129.147-.208.246-.208.264 0 .038-1.516.069-3.703.069-3.665 0-3.71 0-3.977-.168-.518-.32-.549-.472-.549-3.27 0-2.12 0-2.61-.23-2.769-.068-.047-.159-.065-.276-.088h-.004c-.206-.039-.282-.008-.48.19l-.236.236.03 2.645c.015 1.959.053 2.728.13 2.934.16.458.617.983 1.066 1.235l.42.236 3.45.023c1.898.008 3.445.046 3.43.084l-.054.117v.001c-.06.133-.162.359-.274.598-.236.51-.343.663-.457.663-.236 0-1.044.412-1.356.686l-.282.244-.35-.312c-1.06-.93-2.843-.892-3.894.091l-.244.229-.29-.252c-.152-.137-.51-.358-.784-.488-.442-.213-.564-.236-1.181-.228-.83 0-1.38.19-1.898.648l-.35.312-.267-.236a3.031 3.031 0 00-1.295-.656l-.38-.091-.024-6.097-.015-6.097 5.463-3.17a905.778 905.778 0 015.509-3.179c.022 0 2.491 1.418 5.485 3.155zM5.528 26.083c.312.183.51.434.868 1.082a.56.56 0 00.793.213c.106-.068.259-.266.35-.45.358-.716.907-1.074 1.63-1.074.747 0 1.227.32 1.623 1.098.244.48.488.61.87.45.16-.07.273-.199.38-.443.305-.716.876-1.105 1.623-1.105s1.333.404 1.669 1.151c.29.648.86.625 1.203-.046.221-.434.404-.663.602-.77.107-.06.107-.022.023.404-.053.26-.122.755-.152 1.098l-.054.633H2.884v-.48c0-.664.167-1.106.564-1.494.579-.572 1.386-.671 2.08-.267zm9.822-10.068v1.031h-2.128v-2.062h2.128v1.031zm3.389 0v1.031H16.61v-2.062h2.128v1.031zm-3.39 3.3v1.03h-2.127v-2.062h2.128v1.031zm3.39 0v1.03H16.61v-2.062h2.128v1.031zm2.438 4.943c.339-.738 1.325-1.405 2.25-1.535.585-.078.6-.078 1.116 0 .994.155 1.78.66 2.218 1.418.216.382.239.48.239 1.036 0 .557-.023.654-.239 1.036-.94 1.638-3.566 1.956-5.03.615-.523-.492-.731-.945-.731-1.65 0-.415.046-.642.177-.92zm4.63.92c0-.506-.417-1.037-1.002-1.296a1.955 1.955 0 00-1.371-.071c-1.648.486-1.587 2.35.1 2.758.262.065.524.09.709.059.878-.13 1.563-.771 1.563-1.45zm5.065-2.415c-.083.053-1.673 2.603-3.54 5.653-2.921 4.796-3.383 5.593-3.328 5.79.12.448.85.614 1.22.288.111-.098 1.674-2.61 3.485-5.577C31.113 24.963 32 23.438 32 23.248c0-.44-.721-.75-1.128-.485zm-2.04 7.725c.348-.288 1.046-.623 1.555-.748.233-.053.698-.085 1.225-.072.76.013.921.04 1.44.223 1.127.414 1.86 1.195 1.94 2.088.099 1.136-.76 2.121-2.19 2.535-.403.118-.698.15-1.324.15-1.126 0-1.69-.17-2.468-.741-.769-.565-1.01-.985-1.01-1.78 0-.486.036-.617.268-.991.152-.237.403-.532.564-.664zm4.578 1.097c-.206-.322-.662-.65-1.1-.781-.188-.06-.564-.105-.85-.105-1.716.006-2.664 1.425-1.573 2.357.554.48 1.296.67 2.083.532 1.234-.217 1.95-1.202 1.44-2.003z" fill="#1B1B1B"/></svg>