<svg width="130" height="48" fill="none" xmlns="http://www.w3.org/2000/svg"><path d="M70.872 7.303c-1.14 0-2.324-.715-2.324-2.261 0-1.583 1.22-2.297 2.351-2.297.488 0 .968.109 1.338.353v.705c-.325-.253-.786-.389-1.248-.389-.84 0-1.718.47-1.718 1.61 0 1.112.85 1.61 1.7 1.61.47 0 .95-.136 1.311-.353v.723c-.406.2-.868.299-1.41.299zm-6.565-.109v-4.34h.724v1.808h.877l1.374-1.808h.841l-1.646 2.16 1.845 2.18h-.85l-1.591-1.863h-.85v1.863h-.724zm-2.847.109c-1.284 0-2.405-.733-2.405-2.28 0-1.518 1.13-2.278 2.16-2.278 1.674 0 2.289 1.366 2.017 2.595h-3.454c.09.914.913 1.294 1.79 1.294.534 0 1.059-.145 1.43-.353v.705c-.398.208-.968.317-1.538.317zm-1.682-2.596h2.812c.064-.46-.226-1.293-1.329-1.293-.741 0-1.429.443-1.483 1.293zm-5.821 2.559c-.163 0-.335-.027-.525-.1v-.569c.1.036.2.054.29.054.768 0 1.021-1.464 1.103-3.797h3.192v4.34h-.724V3.523H55.53c-.145 2.224-.452 3.743-1.573 3.743zm-5.263-.072v-4.34h3.961v4.34h-.723V3.523h-2.514v3.671h-.724zm-6.075 0v-4.34h.786l1.583 2.405 1.582-2.405h.787v4.34h-.687V3.921l-1.41 2.143h-.543L43.306 3.92v3.273h-.687zm-3.353.109c-1.175 0-2.315-.796-2.315-2.28 0-1.482 1.14-2.278 2.315-2.278 1.185 0 2.315.796 2.315 2.279 0 1.483-1.13 2.279-2.315 2.279zm-1.591-2.28c0 1.005.705 1.592 1.591 1.592s1.592-.587 1.592-1.591-.706-1.592-1.592-1.592c-.886 0-1.591.588-1.591 1.592zM32.71 7.194v-4.34h.724v1.808h.877l1.374-1.808h.841l-1.645 2.16 1.844 2.18h-.85l-1.591-1.863h-.85v1.863h-.724zm-7.603 0v-4.34h.723v3.174l2.659-3.174h.615v4.34h-.724V4.02l-2.658 3.174h-.615zm.732-5.39v-.65c.453.298.823.397 1.266.397.444 0 .814-.099 1.266-.397v.65c-.406.29-.832.38-1.266.38-.434 0-.859-.09-1.266-.38zm-4.085 5.499c-1.175 0-2.315-.796-2.315-2.28 0-1.482 1.14-2.278 2.315-2.278 1.185 0 2.315.796 2.315 2.279 0 1.483-1.13 2.279-2.315 2.279zm-1.591-2.28c0 1.005.705 1.592 1.591 1.592.887 0 1.592-.587 1.592-1.591s-.705-1.592-1.592-1.592c-.886 0-1.591.588-1.591 1.592zm-5.822 2.243c-.162 0-.334-.027-.524-.1v-.569c.1.036.199.054.29.054.768 0 1.021-1.464 1.103-3.797h3.192v4.34h-.724V3.523h-1.763c-.145 2.224-.452 3.743-1.574 3.743zm-5.297-.072v-4.34h.723v3.174l2.659-3.174h.615v4.34h-.724V4.02L9.66 7.194h-.615zm-9.04 0l2.053-3.246L.194.864h.868l1.601 2.74h1.148V.864h.76v2.74h1.14l1.6-2.74h.868L6.316 3.948 8.37 7.194h-.868L5.7 4.328H4.57v2.866h-.76V4.328H2.672l-1.8 2.866H.005zm103.128 39.77h-3.268l4.244-12.579h4.048l4.244 12.579h-3.267l-2.955-9.41h-.098l-2.948 9.41zm-.436-4.95h6.83v2.309h-6.83v-2.31zm-7.186 4.95l-3.955-5.22h-.688v5.22h-3.04V34.385h3.04v4.883h.486l3.894-4.883h3.802l-4.847 5.94 5.098 6.639h-3.79zm-9.422-8.022h-3.071a2.662 2.662 0 00-.252-.854 2.077 2.077 0 00-.504-.65 2.15 2.15 0 00-.743-.412 2.845 2.845 0 00-.94-.148c-.61 0-1.136.15-1.578.449-.438.299-.776.73-1.013 1.296-.234.565-.35 1.248-.35 2.051 0 .835.118 1.535.356 2.1.241.562.579.985 1.013 1.272.438.282.956.424 1.554.424.336 0 .64-.043.915-.13.279-.085.522-.21.731-.374a2.07 2.07 0 00.522-.608c.14-.241.236-.514.289-.817l3.07.019a4.652 4.652 0 01-.484 1.646 5.254 5.254 0 01-1.1 1.48 5.193 5.193 0 01-1.707 1.056c-.668.262-1.434.393-2.297.393-1.139 0-2.158-.25-3.06-.749-.896-.504-1.604-1.236-2.124-2.199-.52-.962-.78-2.133-.78-3.513 0-1.384.264-2.557.792-3.52.528-.962 1.243-1.693 2.144-2.192.9-.5 1.91-.75 3.028-.75.761 0 1.465.107 2.112.32a5.131 5.131 0 011.708.921c.491.402.89.895 1.198 1.48.307.586.497 1.256.57 2.009zm-24.036-4.557h3.034v7.248h.105l4.95-7.248h2.617v12.579h-3.04v-7.26h-.08l-5.012 7.26h-2.574v-12.58zm6.59-3.341h1.978c-.004.77-.294 1.388-.872 1.855-.573.466-1.351.7-2.334.7-.983 0-1.763-.234-2.34-.7-.573-.467-.858-1.085-.854-1.855h1.96c-.004.27.088.516.276.737.188.22.508.331.958.331.438 0 .752-.108.94-.325.188-.217.284-.465.289-.743zm-19.207 3.341h3.034v7.248h.105l4.95-7.248h2.617v12.579H57.1v-7.26h-.08l-5.012 7.26h-2.574V34.385zm-12.116 2.469v-2.469H47.95v2.47h-3.815v10.109H41.14v-10.11h-3.82zm-12.854 10.11V44.58l.344-.037c.442-.053.803-.231 1.081-.534.279-.308.49-.795.633-1.462.147-.672.242-1.579.282-2.721l.203-5.442h8.826v12.579h-2.942V36.78h-3.077l-.197 4.165c-.07 1.437-.251 2.598-.546 3.482-.295.88-.752 1.523-1.37 1.929-.614.405-1.44.608-2.475.608h-.762zm-10.075 0h-3.268l4.244-12.579h4.047l4.244 12.579H20.39l-2.954-9.41h-.099l-2.948 9.41zm-.437-4.95h6.83v2.309h-6.83v-2.31zm-13.5 4.95V34.385h8.592v2.47H3.493v1.965H5.15c1.024 0 1.915.165 2.672.497.762.332 1.35.798 1.763 1.4.417.602.626 1.31.626 2.126 0 .814-.209 1.53-.626 2.15-.414.617-1.001 1.1-1.763 1.449-.757.348-1.648.522-2.672.522H.453zm3.04-2.408H5.15c.442 0 .815-.076 1.118-.227a1.64 1.64 0 00.934-1.511 1.49 1.49 0 00-.529-1.167c-.352-.315-.86-.473-1.523-.473H3.493v3.378zm116.394-15.858h-3.267l4.244-12.58h4.047l4.244 12.58h-3.267l-2.954-9.41h-.099l-2.948 9.41zm-.436-4.951h6.83v2.31h-6.83v-2.31zm-15.223 4.951v-12.58h3.04v5.05h4.957v-5.05h3.034v12.58h-3.034v-5.055h-4.957v5.055h-3.04zM91.61 16.119h3.034v7.247h.105l4.95-7.247h2.617v12.579h-3.04v-7.26h-.08l-5.012 7.26H91.61v-12.58zm-9.264 0v12.579H79.41v-12.58h2.936zM71.603 28.698l3.907-6.659-3.796-5.92h3.747l2.678 5.048h5.558l2.58-5.048h3.728l-3.66 5.884 3.807 6.695h-3.654l-2.414-4.73h-6.357l-2.494 4.73h-3.63zm-9.852.172v-2.408h.645c.348 0 .627-.035.836-.105.213-.073.378-.19.497-.35a2.02 2.02 0 00.307-.639l.141-.386-4.643-8.863h3.12l2.795 5.65 2.248-5.65h3.07l-4.323 9.968c-.225.491-.491.95-.799 1.376a3.526 3.526 0 01-1.16 1.02c-.463.257-1.047.386-1.75.386h-.984zM47.28 16.119h2.942v4.004c0 .438.076.793.227 1.063.156.27.404.469.744.596.34.122.788.184 1.345.184a17.349 17.349 0 001.388-.062c.278-.02.536-.047.774-.08.241-.032.43-.069.565-.11v2.34a4.02 4.02 0 01-.59.123c-.25.037-.516.067-.798.092a20.586 20.586 0 01-1.339.074c-1.057 0-1.98-.15-2.77-.449-.79-.303-1.403-.765-1.837-1.388-.434-.622-.65-1.416-.65-2.383V16.12zm7.432 0h2.96v12.579h-2.96v-12.58zm-24.026 0h3.766l3.193 7.788h.148l3.194-7.788h3.765v12.579h-2.96V20.97h-.105l-3.022 7.647h-1.892l-3.022-7.69h-.104v7.77h-2.96v-12.58zM20.012 28.698v-12.58h8.77v2.47h-5.73v2.58h5.282v2.475h-5.282v2.585h5.73v2.47h-8.77zm-9.265-12.579v12.579H7.81v-12.58h2.936zM.004 28.698l3.907-6.659-3.796-5.92h3.747l2.677 5.048h5.559l2.58-5.048h3.728l-3.66 5.884 3.807 6.695H14.9l-2.414-4.73H6.128l-2.494 4.73H.004z" fill="#1B1B1B"/></svg>