<svg width="38" height="40" fill="none" xmlns="http://www.w3.org/2000/svg"><path d="M16.163.76c-2.296.316-4.638 1.147-6.565 2.318-4.646 2.841-7.743 7.555-8.43 12.843-.122.952-.144 3.453-.039 4.246.046.37.038.469-.06.529-.355.227-.71.627-.892.99-.173.355-.196.476-.166.99.046.89.43 1.518 1.156 1.873.295.143.514.151 7.404.174l7.101.015.302.294c.167.159.801.718 1.42 1.247l1.111.967v3.694l-.226.197c-.446.37-.491.551-.491 1.798 0 1.239.052 1.45.468 1.775l.211.166.038 1.48c.038 1.346.053 1.52.204 1.799.4.748 1.088 1.163 1.95 1.163.68 0 1.17-.219 1.608-.717.469-.53.544-.877.544-2.41v-1.292l.22-.129c.43-.241.536-.596.536-1.843 0-1.247-.068-1.488-.499-1.82l-.257-.19v-.868c0-.816-.007-.87-.189-1.043-.256-.264-.65-.257-.86.008-.137.174-.16.31-.16 1.02v.823h-1.888v-1.911c0-1.829-.008-1.927-.166-2.244-.159-.302-.59-.725-1.708-1.67l-.317-.272.506-.128c.287-.068.74-.234 1.028-.37l.506-.25.748.718c.785.763 1.027 1.156 1.216 1.957.144.634.59.869 1.012.536.16-.128.197-.211.197-.506 0-.43-.28-1.246-.62-1.805-.136-.235-.559-.71-.944-1.073l-.695-.657.604-.71c.34-.394.831-.968 1.103-1.262l.484-.552H36.16l.475-.234c.764-.385 1.119-.99 1.126-1.919.008-.861-.453-1.594-1.194-1.919-.407-.173-.422-.204-.498-.876-.03-.25-.129-.831-.227-1.284C34.687 9.1 31.341 4.846 26.4 2.444c-1.685-.816-3.196-1.307-5.024-1.624-1.02-.174-4.132-.212-5.213-.06zm4.306 1.17c1.632.166 3.544.71 5.085 1.443l.838.4-.604.046c-.77.06-1.322.302-1.874.823-.604.567-.838 1.126-.838 2.002 0 .37.03.786.06.914l.06.242-.74.03c-.642.023-.793.06-1.14.242-.665.37-1.005.96-1.013 1.738 0 .778.348 1.382 1.013 1.752l.4.22 2.916.022c2.863.023 2.916.023 3.113-.136.264-.211.28-.627.037-.884l-.158-.174H24.85c-2.478 0-2.78-.015-2.946-.128-.295-.204-.37-.34-.378-.672 0-.242.045-.348.234-.53.227-.218.25-.218 1.247-.256l1.027-.038.257-.28c.212-.234.257-.347.257-.619 0-.181-.068-.476-.151-.657a1.715 1.715 0 01.385-1.934c.453-.43.665-.476 2.199-.476h1.382l.763.635a16.918 16.918 0 013.573 4.17l.454.748-1.753.037c-.967.023-1.76.053-1.775.06-.015.008-.068.13-.129.273-.136.325-.038.665.235.793.128.053.83.083 2.107.083h1.912l.241.657c.446 1.232.907 3.113.907 3.695v.181h-6.21c-6.784.008-6.928.015-7.842.43-.8.37-1.216.741-2.5 2.23l-1.224 1.42H2.36l-.046-.514c-.03-.28-.052-.718-.052-.975v-.468l4.14-.023 4.132-.022.499-.242a3.112 3.112 0 001.412-1.443c.174-.363.204-.537.204-1.11 0-.378-.03-.786-.06-.915l-.06-.242.74-.03c.823-.037 1.178-.166 1.609-.604.378-.37.529-.77.529-1.383 0-.634-.159-1.012-.574-1.412-.605-.574-.333-.544-5.757-.59l-4.858-.037.4-.643c.212-.355.567-.883.786-1.186l.4-.544 3.423-.022 3.422-.023.408-.227c1.436-.793 1.353-2.908-.143-3.58-.182-.084-.597-.129-1.353-.16L10.475 4l.883-.438c2.947-1.458 5.84-1.98 9.111-1.632zm-7.962 3.46c.34.204.46.597.294.944-.234.484-.317.5-3.256.5H6.916l.265-.273c.136-.151.529-.506.86-.793l.605-.521h1.813c1.655 0 1.836.015 2.048.143zm1.473 6.565c.234.257.28.552.136.869-.151.332-.348.393-1.413.43l-1.012.038-.257.28c-.211.234-.257.347-.257.62 0 .18.068.475.151.657.386.853-.007 1.866-.869 2.266-.28.129-.566.144-4.26.144H2.247l.046-.514c.143-1.39.521-3.015.99-4.238.143-.386.287-.733.31-.77.022-.046 2.122-.061 5.106-.054l5.062.023.219.25zm22.007 5.711c.136.053.317.197.408.31.294.378.166 1.11-.234 1.338-.129.075-1.647.105-7.004.136l-6.837.037-.302.182c-.181.098-.808.763-1.534 1.601-1.33 1.541-1.707 1.866-2.5 2.108-.46.143-.718.151-8.31.151-7.608 0-7.834-.008-8.046-.143a.924.924 0 01.151-1.64c.212-.09 1.579-.106 7.925-.106 7.472 0 7.683-.007 7.963-.15.188-.091.695-.605 1.427-1.451 1.247-1.443 1.496-1.693 1.942-1.965.302-.188.876-.4 1.247-.46.105-.015 3.172-.038 6.822-.046 5.484-.007 6.67.008 6.882.098zM22.358 32.935v.868h-1.654c-1.436 0-1.662-.015-1.7-.12-.023-.068-.046-.4-.046-.748s.023-.68.046-.748c.038-.106.264-.121 1.7-.121h1.654v.869zm-.755 3.248c0 1.277-.046 1.473-.423 1.768-.136.106-.31.159-.53.159-.271 0-.384-.046-.619-.257l-.28-.257-.022-1.292-.023-1.292h1.897v1.171z" fill="#1B1B1B"/></svg>