<svg width="46" height="51" fill="none" xmlns="http://www.w3.org/2000/svg"><path fill-rule="evenodd" clip-rule="evenodd" d="M39.463 32.159V1.286a.636.636 0 00-.636-.636H20.545a.636.636 0 00-.636.636v3.778H1.097a.635.635 0 00-.636.635v38.59a.636.636 0 00.636.636h25.6c0-.43.021-.854.063-1.272h-3.284v-3.35h4.084c.17-.436.362-.86.576-1.272H15.641v-9.085h6.795a.636.636 0 000-1.272H19.32v-1.57a.636.636 0 10-1.272 0v1.571h-6.615a.636.636 0 000 1.272h2.935v10.017h-3.572v-.827a.638.638 0 00-.636-.636H1.736v-2.31h1.64a.636.636 0 00.636-.636v-.198a2.1 2.1 0 00.848.177h1.653a2.12 2.12 0 000-4.24H4.86c-.292 0-.58.06-.848.176v-.197a.636.636 0 00-.636-.636h-1.64v-.691h2.956a.636.636 0 100-1.272H1.736v-2.322H3.8a.636.636 0 00.636-.636v-10h1.95a.636.636 0 100-1.27h-4.65v-3.697h18.17v3.696h-5.974a.636.636 0 000 1.272h4.118v1.57a.636.636 0 101.271 0v-1.57h1.225a.635.635 0 00.636-.636V1.927H38.19v30.295a12.883 12.883 0 011.272-.063zm-17.259 8.144v3.346l-6.563.005v-3.351h6.563zM19.91 6.33v.934H1.736V6.33H19.91zm0 2.207v.934L1.736 9.48v-.943H19.91zm-5.763 32.698v2.418h-3.35v-2.418h3.35zm-4.623-1.462v3.88H1.736v-3.88h7.788zm-5.263-5.761a.85.85 0 01.6-1.448h1.653a.848.848 0 110 1.696H4.86a.849.849 0 01-.599-.248zM3.164 15.718v9.362H1.736v-9.362h1.428zm-.423 16.19v1.505L2.74 34.92H1.736v-3.011H2.74zm33.562-7.314v-5.102a.636.636 0 00-.636-.635H24.011a.636.636 0 00-.636.636v5.1a.636.636 0 00.636.637h11.656a.636.636 0 00.636-.636zm-1.271-4.466v3.828l-10.383.002v-3.829h.636v2.258a.636.636 0 00.636.636h7.839a.636.636 0 00.636-.636v-2.259h.636zm-1.909 0v1.621l-6.567.002v-1.623h6.567zM35.735 6.15a.636.636 0 00-.445-1.085h-1.974a.636.636 0 00-.635-.593h-5.726a.636.636 0 00-.635.593h-1.975a.636.636 0 100 1.271h10.94c.169 0 .33-.067.45-.186zm-5.537 9.29c2.782 0 4.96-1.584 4.96-3.607s-2.178-3.608-4.96-3.608-4.962 1.58-4.962 3.608 2.18 3.607 4.962 3.607zm0-1.272c-2 0-3.69-1.07-3.69-2.335s1.69-2.335 3.69-2.335 3.69 1.069 3.69 2.335c0 1.265-1.69 2.335-3.69 2.335zm6.919 35.412a7 7 0 100-14 7 7 0 000 14zm0 1a8 8 0 100-16 8 8 0 000 16zm4.968-11.554a.5.5 0 010 .707l-6.364 6.364a.435.435 0 01-.02.019l-.007.007-.01.01a.5.5 0 01-.707 0l-2.828-2.828a.5.5 0 11.707-.707l2.475 2.475 6.047-6.047a.5.5 0 01.707 0z" fill="#fff"/></svg>