<svg width="39" height="27" fill="none" xmlns="http://www.w3.org/2000/svg"><path d="M7.139.824l-.196.197V4.05h-2.78l-.227.22a1.02 1.02 0 00-.265.513c-.03.158-.053 1.178-.053 2.266v1.972l-.982.03c-.952.023-.982.03-1.186.234-.211.204-.211.212-.211 1.232v1.027l.249.22c.136.12.295.219.355.219.098 0 .113.241.113 1.662v1.662h-.642c-.748 0-1.027.105-1.216.468-.46.891.763 3.823 2.448 5.877.257.31.468.635.468.726 0 .083-.242.665-.536 1.284-.484 1.035-.53 1.156-.499 1.526.023.287.076.446.212.59.408.438-.688.407 15.592.407 15.994 0 15.291.016 15.616-.347.068-.083 1.277-2.576 2.675-5.545 2.72-5.787 2.765-5.885 2.492-6.414a1.202 1.202 0 00-.37-.386c-.226-.143-.4-.15-3.021-.15-2.607 0-2.796.007-3.068.15-.287.144-.672.537-.702.703-.008.053-.03-.657-.053-1.571-.046-1.806-.06-1.866-.514-2.161-.196-.128-.4-.144-2.417-.144h-2.214V8.13c0-1.534-.03-2.244-.09-2.38-.19-.423-.069-.416-5.606-.416-3.657 0-5.152.023-5.288.083-.424.197-.424.167-.424 5.236v4.654h-1.662v-1.662c0-1.42.015-1.662.114-1.662.06 0 .219-.099.355-.22l.25-.219v-1.027c0-1.02 0-1.028-.213-1.232-.203-.204-.226-.211-1.223-.234l-1.02-.03V4.518l-.234-.234-.235-.234h-2.78V2.547c0-1.693-.03-1.79-.544-1.866-.226-.038-.31-.015-.468.143zm3.052 6.323v1.89H4.827V5.258h5.364v1.888zm9.746 1.285v1.888h-3.929V6.543h3.929v1.889zm5.061 0v1.888h-3.853V6.543h3.853v1.889zm-12.314 2.077v.265H9.436c-2.274 0-3.302.022-3.43.083-.272.128-.393.521-.242.808a.72.72 0 00.234.272c.068.023 1.436.046 3.03.046h2.9v3.324H3.166v-3.324h.34c.567 0 .846-.386.635-.854-.121-.272-.378-.355-1.088-.355H2.41v-.529h10.274v.264zm7.253 2.909v1.889h-3.929v-3.778h3.929v1.889zm5.061 0v1.889h-3.853v-3.778h3.853v1.889zm5.137 0v1.889h-3.928v-3.778h3.929v1.889zm7.238 1.194c-.008.037-.756 1.616-1.647 3.513l-1.617 3.452h-2.886c-2.802 0-2.886.007-3.082.159-.264.204-.272.65-.023.883.174.16.227.167 2.78.182l2.614.023-.498 1.072-.499 1.08H17.882c-8.054 0-14.641-.014-14.641-.022 0-.015.196-.453.438-.967.25-.514.468-.997.49-1.073.046-.12.636-.128 10.97-.128h10.925l.18-.19a.555.555 0 000-.83l-.18-.189H4.018l-.181-.257a57.63 57.63 0 00-.771-1.027c-.665-.877-1.473-2.433-1.7-3.287l-.143-.529 14.724.023c9.896.015 14.867-.007 15.154-.06.733-.136 1.149-.537 1.308-1.285.045-.226.12-.46.158-.513.06-.068.642-.09 2.455-.09 1.307 0 2.365.03 2.35.06z" fill="#1B1B1B"/></svg>