<svg width="37" height="39" fill="none" xmlns="http://www.w3.org/2000/svg"><path d="M20.499.464c-3.445.695-6.188 3.188-7.245 6.588-.038.121-.06.121-.31.015-.4-.166-1.216-.25-1.775-.174a3.471 3.471 0 00-1.972 1.035c-.461.491-.9 1.255-.9 1.557 0 .287.31.574.628.574.302 0 .483-.174.755-.718.234-.468.665-.891 1.11-1.088.454-.204 1.217-.211 1.754-.007l.4.15-.068.719a7.838 7.838 0 000 1.458c.075.717.068.732-.106.876a3.04 3.04 0 00-.869 1.103c-.226.453-.241.536-.241 1.284 0 .733.015.831.241 1.3.303.642.801 1.14 1.443 1.443.461.219.575.241 1.224.241.62 0 .778-.03 1.156-.204 1.224-.574 1.851-1.609 1.775-2.938-.06-1.08-.747-2.108-1.692-2.554-.423-.204-1.11-.34-1.443-.287l-.242.045-.052-.49c-.046-.477-.015-1.202.06-1.277.068-.068 6.217 3.225 6.467 3.46.574.543.846 1.344.695 2.055-.046.226-.65 1.48-1.541 3.195-1.496 2.909-1.738 3.271-2.312 3.566-.144.068-1.383.46-2.758.869-1.85.544-2.53.778-2.644.899-.083.09-1.783 3.309-3.77 7.154l-3.61 6.988-1.202.257c-.748.159-1.231.227-1.277.181-.09-.09-.982-2.213-.982-2.334 0-.197.31-.476.62-.552 1.11-.28 1.564-1.133 1.224-2.273-.136-.469-.099-.703.196-1.164.181-.287.272-.355.62-.46 1.125-.326 1.556-1.134 1.2-2.237l-.158-.491.242-.484c.264-.513.28-.528.83-.725.44-.15.794-.385.998-.665.212-.287.257-1.11.09-1.624l-.128-.378.809-1.579.8-1.57-.883-2.683c-1.11-3.392-1.103-3.127-.159-4.986.544-1.065.65-1.33.612-1.51-.083-.363-.506-.56-.9-.409-.158.06-1.359 2.372-1.518 2.931-.098.325-.12.627-.098 1.096.03.574.121.922.839 3.052l.8 2.402-.755 1.458c-.854 1.655-.884 1.806-.567 2.652.106.265.167.499.136.521-.03.015-.31.106-.619.197-.46.136-.627.226-.876.49-.378.386-.68.983-.794 1.565-.075.385-.068.476.114 1.012.105.325.173.612.136.635-.03.03-.287.113-.574.188-.658.174-.99.454-1.368 1.186-.37.703-.438 1.33-.196 1.934.09.22.158.446.158.5 0 .067-.219.165-.581.264-.87.234-1.345.778-1.436 1.631-.038.355.008.499.506 1.708.303.725.612 1.405.688 1.51.189.273.59.446 1.005.446.566 0 2.84-.513 3.142-.71.235-.15.695-1.012 3.899-7.192l3.633-7.018.748-.242c.408-.128.786-.242.839-.242.068-.007.098.839.113 3.634.023 3.581.023 3.657.19 3.959.188.363.694.838 1.034.974.181.076 1.942.099 8.242.121 7.993.03 8.008.03 8.348-.128.491-.227.794-.514 1.013-.952.189-.378.196-.446.196-1.7 0-1.239-.008-1.307-.166-1.458-.212-.189-.59-.196-.824-.008-.173.137-.18.197-.219 1.39-.045 1.398-.075 1.496-.596 1.64-.152.038-1.202.076-2.365.076h-2.1V25.01l-.19-.182-.18-.188h-2.75c-2.667 0-2.758.007-2.954.158l-.197.151v6.21l-2.395-.053-2.402-.053-.227-.226-.226-.22v-7.433l.944-.272c1.64-.469 2.176-.884 2.931-2.29.25-.46.522-.974.597-1.14l.136-.287.453.045c1.179.129 1.141.114 1.24.386.135.392.649.914 1.125 1.148.37.181.521.211 1.073.211.755-.007 1.148-.158 1.647-.657.46-.453.65-.891.68-1.586.037-.77-.114-1.224-.597-1.753-.499-.544-.982-.755-1.73-.763-.612 0-.907.09-1.42.438-.363.242-.816.877-.892 1.24l-.045.248-.43-.045c-.235-.03-.44-.06-.447-.076-.015-.007.22-.498.522-1.087l.551-1.073 1.073-.718c.59-.393 1.11-.71 1.148-.695.046.015 1.881 1.254 4.087 2.75l4.004 2.72.008 2.954c0 2.87.007 2.961.159 3.157.18.227.543.265.808.076l.166-.113v-2.607c0-1.428.008-2.599.023-2.599.007 0 .15.053.317.114.453.159 1.292.143 1.7-.045.914-.408 1.367-1.345 1.133-2.327-.166-.703-.325-.846-3.188-2.765-1.466-.99-2.682-1.806-2.697-1.821-.008-.008.076-.272.204-.582 1.413-3.505.59-7.615-2.063-10.282A9.46 9.46 0 0024.02.434c-.869-.166-2.629-.15-3.52.03zm3.346 1.179c3.226.574 5.848 3.165 6.558 6.49.325 1.51.143 3.399-.461 4.842l-.106.264-2.296-1.548c-1.262-.847-2.425-1.58-2.592-1.625-.4-.113-.86-.105-1.208.023-.167.053-.771.408-1.345.786l-1.05.68-.31-.212c-.166-.113-1.723-.944-3.445-1.85-1.722-.9-3.165-1.67-3.203-1.7-.03-.038.015-.295.106-.582 1.155-3.506 4.578-5.878 8.234-5.704.272.015.77.075 1.118.136zm6.142 13.175c3.755 2.524 5.44 3.687 5.538 3.853.189.317.113.688-.197.945-.483.407-.355.476-5.802-3.196-4.011-2.712-4.993-3.34-5.197-3.34-.174 0-.446.137-.975.492-.77.514-.846.521-.853.075 0-.128-.084-.43-.19-.672-.097-.25-.173-.46-.165-.468 1.125-.794 2.01-1.315 2.25-1.315.13 0 1.92 1.156 5.591 3.626zM15.278 12.22c.937.475 1.3 1.677.77 2.553l-.173.287-.34-.514c-.551-.83-1.118-2.07-1.118-2.432 0-.136.491-.076.861.105zm-1.632 1.427c.16.378.484.982.726 1.353l.43.672-.393-.045a1.83 1.83 0 01-1.314-.839c-.196-.332-.227-.438-.227-.944 0-.476.03-.627.182-.869.166-.264.196-.28.249-.151.03.075.189.453.348.823zm11.106 3.86l.28.122-.303.113c-.415.151-1.397.348-1.458.295-.075-.084.363-.476.612-.56.355-.113.552-.105.869.03zm.695 1.383c0 .136-.355.582-.597.74-.408.28-1.058.19-1.39-.18-.128-.152-.128-.16.529-.273.363-.068.816-.173 1.005-.234.423-.128.453-.136.453-.053zm.68 9.602v2.645h-3.853v-5.289h3.853v2.644z" fill="#1B1B1B"/><path d="M9.62 23.499a.756.756 0 00-.242.166c-.045.06-1.42 2.674-3.044 5.81-2.025 3.898-2.97 5.779-2.97 5.945-.007.34.205.551.552.551a.76.76 0 00.439-.135c.083-.069 1.48-2.698 3.105-5.84 3.074-5.953 3.135-6.074 2.825-6.361-.174-.152-.476-.212-.665-.136z" fill="#1B1B1B"/></svg>